# xmcd
#
# Track frame offsets:
#	150
#	11619
#	24901
#	38666
#	50676
#	62980
#	74809
#	87271
#	100374
#	114061
#	126530
#	141109
#	155612
#	170569
#	184667
#	199075
#	213226
#	224433
#	237978
#	251150
#	265529
#	280605
#	295219
#	309164
#
# Disc length: 4290 seconds
#
# Revision: 1
# Processed by: cddbd v1.5.2PL0 Copyright (c) Steve Scherf et al.
# Submitted via: audiograbber 1.83.01
#
DISCID=6410c018
DTITLE=Ma Rainey - Ma Rainey - Mother of the Blues - CD 5
DYEAR=1900
DGENRE=Blues
TTITLE0=Black Cat, Hoot Owl Blues
TTITLE1=Log Camp Blues
TTITLE2=Hear Me Talking to You
TTITLE3=Hustlin' Blues
TTITLE4=Prove It to Me Blues
TTITLE5=Victim of the Blues
TTITLE6=Traveling Blues (take 1)
TTITLE7=Traveling Blues (take 2)
TTITLE8=Deep Moaning Blues (take 1)
TTITLE9=Deep Moaning Blues (take 2)
TTITLE10=Daddy, Goodbye Blues
TTITLE11=Sleep Talking Blues (take 1)
TTITLE12=Sleep Talking Blues (take 2)
TTITLE13=Tough Luck Blues
TTITLE14=Blame It on the Blues
TTITLE15=Sweet, Rough Man
TTITLE16=Runaway Blues
TTITLE17=Screech Owl Blues
TTITLE18=Black Dust Blues
TTITLE19=Leaving This Morning
TTITLE20=Black Eye Blues (take 1)
TTITLE21=Black Eye Blues (take 2)
TTITLE22=Me and Pa Poorhouse Blues
TTITLE23=Big Feeling Blues
EXTD=CD 5/5 - JSP 7793
EXTT0=
EXTT1=
EXTT2=
EXTT3=
EXTT4=
EXTT5=
EXTT6=
EXTT7=
EXTT8=
EXTT9=
EXTT10=
EXTT11=
EXTT12=
EXTT13=
EXTT14=
EXTT15=
EXTT16=
EXTT17=
EXTT18=
EXTT19=
EXTT20=
EXTT21=
EXTT22=
EXTT23=
PLAYORDER=
